<svg width="34" height="16" viewBox="0 0 34 16" fill="none" xmlns="http://www.w3.org/2000/svg">
<path d="M4.04 9.16H1.9V15H2.98023e-08V1.22H3.62C5.34 1.22 6.64 1.54667 7.52 2.2C8.41333 2.85333 8.86 3.82667 8.86 5.12C8.86 6.08 8.61333 6.86 8.12 7.46C7.62667 8.06 6.88 8.51333 5.88 8.82L9.6 15H7.34L4.04 9.16ZM3.82 7.7C4.82 7.7 5.57333 7.5 6.08 7.1C6.58667 6.68667 6.84 6.02667 6.84 5.12C6.84 4.26667 6.58 3.65333 6.06 3.28C5.55333 2.89333 4.73333 2.7 3.6 2.7H1.9V7.7H3.82ZM21.4127 10.58C21.4127 11.5 21.2193 12.3133 20.8327 13.02C20.4593 13.7133 19.906 14.26 19.1727 14.66C18.4527 15.0467 17.586 15.24 16.5727 15.24C15.0393 15.24 13.8527 14.82 13.0127 13.98C12.186 13.1267 11.7727 11.9933 11.7727 10.58V1.22H13.6727V10.44C13.6727 11.5067 13.9127 12.3067 14.3927 12.84C14.8727 13.3733 15.5993 13.64 16.5727 13.64C17.5593 13.64 18.2927 13.38 18.7727 12.86C19.2527 12.3267 19.4927 11.52 19.4927 10.44V1.22H21.4127V10.58ZM28.4781 0.979999C29.3981 0.979999 30.1848 1.11333 30.8381 1.38C31.4915 1.63333 32.1248 2.03333 32.7381 2.58L31.6981 3.74C31.1781 3.32667 30.6648 3.02667 30.1581 2.84C29.6648 2.64 29.1315 2.54 28.5581 2.54C27.8381 2.54 27.2448 2.70667 26.7781 3.04C26.3115 3.37333 26.0781 3.86 26.0781 4.5C26.0781 4.9 26.1581 5.24 26.3181 5.52C26.4781 5.78667 26.7715 6.03333 27.1981 6.26C27.6381 6.48667 28.2715 6.72667 29.0981 6.98C29.9648 7.24667 30.6848 7.53333 31.2581 7.84C31.8315 8.14667 32.2915 8.57333 32.6381 9.12C32.9981 9.65333 33.1781 10.3333 33.1781 11.16C33.1781 11.96 32.9781 12.6667 32.5781 13.28C32.1915 13.8933 31.6248 14.3733 30.8781 14.72C30.1448 15.0667 29.2715 15.24 28.2581 15.24C26.3515 15.24 24.7915 14.6467 23.5781 13.46L24.6181 12.3C25.1781 12.7533 25.7448 13.1 26.3181 13.34C26.8915 13.5667 27.5315 13.68 28.2381 13.68C29.0915 13.68 29.7981 13.4733 30.3581 13.06C30.9181 12.6333 31.1981 12.02 31.1981 11.22C31.1981 10.7667 31.1115 10.3933 30.9381 10.1C30.7648 9.79333 30.4648 9.52 30.0381 9.28C29.6248 9.04 29.0181 8.8 28.2181 8.56C26.8048 8.13333 25.7715 7.62 25.1181 7.02C24.4648 6.42 24.1381 5.60667 24.1381 4.58C24.1381 3.88667 24.3181 3.26667 24.6781 2.72C25.0515 2.17333 25.5648 1.74667 26.2181 1.44C26.8848 1.13333 27.6381 0.979999 28.4781 0.979999Z" fill="black"/>
</svg>
